<mxfile host="Electron" agent="Mozilla/5.0 (Windows NT 10.0; Win64; x64) AppleWebKit/537.36 (KHTML, like Gecko) draw.io/24.7.8 Chrome/128.0.6613.36 Electron/32.0.1 Safari/537.36" version="24.7.8">
  <diagram name="Page-1" id="099fd60b-425b-db50-ffb0-6b813814b670">
    <mxGraphModel dx="680" dy="392" grid="1" gridSize="5" guides="1" tooltips="1" connect="1" arrows="1" fold="1" page="1" pageScale="1" pageWidth="850" pageHeight="1100" background="none" math="0" shadow="0">
      <root>
        <mxCell id="0" />
        <mxCell id="1" parent="0" />
        <mxCell id="E9XPyHdcbbLzMoTRbIXx-2" value="" style="strokeColor=#666666;html=1;verticalLabelPosition=bottom;labelBackgroundColor=#ffffff;verticalAlign=top;outlineConnect=0;shadow=0;dashed=0;shape=mxgraph.rackGeneral.rackCabinet3;fillColor2=#f4f4f4;container=1;collapsible=0;childLayout=rack;allowGaps=1;marginLeft=33;marginRight=9;marginTop=21;marginBottom=22;textColor=#666666;numDisp=ascend;" vertex="1" parent="1">
          <mxGeometry x="60" y="80" width="204" height="219" as="geometry" />
        </mxCell>
        <mxCell id="E9XPyHdcbbLzMoTRbIXx-9" value="Fritzbox 4040 + RasPi 4B" style="rounded=0;whiteSpace=wrap;html=1;" vertex="1" parent="E9XPyHdcbbLzMoTRbIXx-2">
          <mxGeometry x="33" y="94" width="162" height="15" as="geometry" />
        </mxCell>
        <mxCell id="E9XPyHdcbbLzMoTRbIXx-5" value="" style="html=1;verticalLabelPosition=bottom;verticalAlign=top;outlineConnect=0;shadow=0;dashed=0;shape=mxgraph.rack.hpe_aruba.switches.j9773a_2530_24g_poeplus_switch;" vertex="1" parent="E9XPyHdcbbLzMoTRbIXx-2">
          <mxGeometry x="33" y="109" width="162" height="15" as="geometry" />
        </mxCell>
        <mxCell id="E9XPyHdcbbLzMoTRbIXx-3" value="" style="strokeColor=#666666;html=1;labelPosition=right;align=left;spacingLeft=15;shadow=0;dashed=0;outlineConnect=0;shape=mxgraph.rack.dell.dell_poweredge_2u;" vertex="1" parent="E9XPyHdcbbLzMoTRbIXx-2">
          <mxGeometry x="33" y="124" width="162" height="30" as="geometry" />
        </mxCell>
        <mxCell id="E9XPyHdcbbLzMoTRbIXx-4" value="" style="strokeColor=#666666;html=1;labelPosition=right;align=left;spacingLeft=15;shadow=0;dashed=0;outlineConnect=0;shape=mxgraph.rack.dell.dell_poweredge_2u;" vertex="1" parent="E9XPyHdcbbLzMoTRbIXx-2">
          <mxGeometry x="33" y="154" width="162" height="30" as="geometry" />
        </mxCell>
      </root>
    </mxGraphModel>
  </diagram>
</mxfile>
